<!DOCTYPE svg PUBLIC "-//W3C//DTD SVG 20010904//EN" "http://www.w3.org/TR/2001/REC-SVG-20010904/DTD/svg10.dtd">
<svg version="1.0" xmlns="http://www.w3.org/2000/svg" width="1598px" height="1076px" viewBox="0 0 15980 10760" preserveAspectRatio="xMidYMid meet">
<g id="layer101" fill="#566991" stroke="none">
 <path d="M2257 7953 c-45 -14 -74 -29 -71 -35 4 -6 -1 -8 -12 -4 -24 7 -117 -27 -107 -39 5 -4 0 -5 -9 -2 -21 7 -692 -215 -713 -237 -14 -14 -15 -176 -12 -1563 3 -1710 -1 -1592 68 -1851 37 -142 65 -215 127 -339 74 -146 95 -183 121 -212 14 -14 24 -27 23 -28 -6 -9 2 -22 30 -53 18 -19 33 -38 33 -42 0 -15 110 -140 192 -219 148 -142 305 -250 528 -361 216 -109 568 -188 830 -188 179 0 440 46 636 111 348 116 686 364 911 667 208 281 326 556 373 870 22 145 22 481 0 614 -68 417 -259 785 -561 1078 -152 147 -228 205 -409 313 -99 59 -339 153 -470 185 -213 52 -252 57 -485 57 -233 0 -271 -4 -485 -56 -104 -26 -315 -105 -415 -156 -13 -7 -25 -11 -27 -9 -1 1 -3 345 -3 764 0 419 -4 762 -8 761 -4 0 -42 -12 -85 -26z m1132 -2303 c113 -15 249 -60 349 -116 90 -52 223 -168 281 -248 273 -371 238 -878 -83 -1199 -188 -188 -399 -277 -656 -277 -168 0 -348 48 -473 127 -192 120 -341 308 -409 513 -27 84 -31 112 -36 240 -3 109 0 165 11 222 66 316 296 581 601 691 140 50 269 65 415 47z"/>
 <path d="M8710 6665 c-451 -65 -826 -249 -1130 -554 -298 -299 -475 -653 -552 -1101 -17 -99 -16 -461 1 -560 21 -121 70 -316 102 -404 54 -146 233 -466 262 -466 5 0 8 -3 4 -6 -19 -19 238 -286 368 -384 144 -108 360 -228 512 -286 209 -78 534 -131 736 -119 247 15 493 69 701 156 66 27 123 49 126 49 4 0 5 -47 2 -105 l-5 -105 512 0 511 0 0 1920 0 1920 -511 0 -511 0 2 -67 c1 -38 2 -71 1 -75 -1 -3 -45 13 -98 37 -127 55 -307 109 -458 136 -152 28 -435 34 -575 14z m415 -1024 c340 -71 604 -298 708 -612 38 -115 51 -214 44 -347 -7 -130 -21 -193 -71 -311 -71 -169 -182 -301 -342 -407 -183 -122 -365 -171 -569 -154 -191 17 -338 71 -480 177 -178 132 -300 310 -356 518 -26 95 -31 311 -10 410 60 274 248 518 496 642 187 94 390 123 580 84z"/>
 <path d="M13145 6665 c-197 -19 -365 -57 -535 -122 -268 -103 -411 -187 -595 -351 -300 -266 -507 -601 -605 -979 -57 -221 -54 -104 -57 -2023 -2 -1458 0 -1768 11 -1782 8 -11 207 -83 501 -183 269 -91 492 -165 497 -165 4 0 8 437 8 972 0 534 2 973 5 976 2 2 16 -5 30 -16 79 -62 413 -171 605 -197 135 -19 435 -19 570 0 240 32 529 134 718 251 252 157 490 392 647 639 108 168 223 458 266 670 31 153 39 493 15 643 -69 434 -249 790 -553 1099 -224 226 -492 389 -802 487 -104 33 -315 73 -426 80 -49 4 -106 8 -125 10 -19 2 -98 -2 -175 -9z m320 -1030 c367 -70 666 -367 741 -735 13 -65 15 -113 11 -210 -8 -176 -43 -294 -136 -455 -49 -87 -226 -259 -321 -312 -302 -170 -672 -160 -965 25 -102 64 -239 209 -298 312 -145 259 -161 560 -43 838 86 206 288 401 506 488 148 60 347 79 505 49z"/>
 <path d="M5605 6612 c-3 -8 -5 -1170 -5 -2582 0 -1912 3 -2571 11 -2576 7 -4 238 -82 515 -174 l503 -168 1 2743 c0 2285 -2 2744 -13 2753 -22 18 -1005 21 -1012 4z"/>
 </g>

</svg>